ply
format ascii 1.0
comment created by platoply
comment modified by MCH
element vertex 29
property float32 x
property float32 y
property float32 z
element face 38
property list uint8 int32 vertex_indices
end_header
-64.000000 0.000000 -36.000000
-64.000000 0.000000 -16.000000
-20.000000 -12.000000 -26.000000
-20.000000 -12.000000 -96.000000
20.000000 -12.000000 -26.000000
20.000000 -12.000000 -96.000000
64.000000 0.000000 -36.000000
64.000000 0.000000 -16.000000
20.000000 0.000000 2.000000
-20.000000 12.000000 -26.000000
-20.000000 12.000000 -96.000000
20.000000 12.000000 -96.000000
20.000000 12.000000 -26.000000
-20.000000 0.000000 2.000000
-20.000000 -12.000000 16.000000
20.000000 -12.000000 16.000000
4.000000 0.000000 76.000000
-20.000000 12.000000 26.000000
4.000000 0.000000 76.000000
-4.000000 0.000000 76.000000
0.000000 4.000000 64.000000
20.000000 12.000000 26.000000
-4.000000 0.000000 76.000000
-6.000000 10.000000 34.000000
6.000000 10.000000 34.000000
0.000000 12.000000 48.000000
0.000000 12.000000 -26.000000
0.000000 -12.000000 -26.000000
0.000000 0.00000000 108.000000
3 2 1 0
3 27 2 3
3 6 4 5
3 4 6 7
3 4 7 8
3 0 1 9 
3 12 11 26
3 10 26 11
3 26 10 9
3 11 12 6
3 1 13 9
3 10 3 0
3 11 5 3
3 5 11 6
3 2 13 1
3 12 8 7
3 15 27 4
3 17 26 9
3 21 12 26
3 8 15 4
3 8 12 21
3 2 14 13
3 13 17 9
3 21 15 8
3 17 13 14
3 7 6 12
3 2 27 14
3 14 27 15
3 26 17 21
3 0 3 2
3 3 5 27
3 5 27 4
3 9 10 0
3 3 10 11
3 17 28 21
3 21 28 15
3 15 28 14
3 14 28 17
